<?xml version="1.0" encoding="UTF-8"?>
<svg xmlns="http://www.w3.org/2000/svg" width="500" height="500" xmlns:xlink="http://www.w3.org/1999/xlink" viewBox="0 0 500 500">
  <defs>
    <style>
      .uuid-6d2e81db-7434-42f7-aedd-159675ae46b7 {
        fill: url(#uuid-03544220-368f-4007-95da-ead9c7d69027);
      }

      .uuid-de5971b0-114d-4967-bddf-dcf73f14ce39 {
        fill: url(#uuid-5bceb0fa-c13a-4827-b902-0e91248be82b);
        mix-blend-mode: screen;
      }

      .uuid-42ad2470-d218-4f32-86be-129b318794a9 {
        fill: url(#uuid-ecc27738-8e98-40d8-9599-c4974ae3aae1);
      }

      .uuid-c979f990-854d-4a84-8659-64a0d5f8da87 {
        fill: url(#uuid-e7ba17cd-f660-47d4-9e13-fbaa25aa455a);
      }

      .uuid-c979f990-854d-4a84-8659-64a0d5f8da87, .uuid-cf75f2c7-25dc-4220-a2d2-f85f3a64d1b3, .uuid-c8f7eb17-52f0-4225-a48d-96cce256d097 {
        mix-blend-mode: multiply;
      }

      .uuid-cf75f2c7-25dc-4220-a2d2-f85f3a64d1b3 {
        fill: url(#uuid-9ab26293-e124-4fd3-b439-c546c1e2653d);
      }

      .uuid-e86238f4-7015-4b37-8162-7b0c907f73d9 {
        fill: none;
        isolation: isolate;
      }

      .uuid-b8396979-0365-45ca-809c-bfda1d8f028f {
        fill: url(#uuid-1695a751-9202-4f25-952a-e652411829e5);
      }

      .uuid-01d1b295-ef94-4b87-bda6-7b121f9e5f06 {
        fill: url(#uuid-b6687b53-bae2-4b7f-a65b-ae208dda38f1);
      }

      .uuid-a310e695-0c2f-47ed-89bd-971fd83eee1b {
        fill: url(#uuid-447d1d58-296f-464a-93ba-9162c01a3bc3);
      }

      .uuid-046c650e-d143-4142-8e55-ec079e8b74f5 {
        fill: url(#uuid-5c88bee9-a4f5-4b4a-9fbc-0993b13d42fc);
      }

      .uuid-c8f7eb17-52f0-4225-a48d-96cce256d097 {
        fill: url(#uuid-fc927abd-8972-40c2-ab23-91bdcd1d2696);
      }
    </style>
    <linearGradient id="uuid-5c88bee9-a4f5-4b4a-9fbc-0993b13d42fc" x1="302.65" y1="193.39" x2="345.77" y2="150.26" gradientUnits="userSpaceOnUse">
      <stop offset="0" stop-color="#dc6400"/>
      <stop offset=".32" stop-color="#ea930f"/>
      <stop offset=".61" stop-color="#f5b81b"/>
      <stop offset=".85" stop-color="#fccf23"/>
      <stop offset="1" stop-color="#ffd826"/>
    </linearGradient>
    <linearGradient id="uuid-03544220-368f-4007-95da-ead9c7d69027" x1="344.63" y1="258.3" x2="397.19" y2="258.3" xlink:href="#uuid-5c88bee9-a4f5-4b4a-9fbc-0993b13d42fc"/>
    <linearGradient id="uuid-9ab26293-e124-4fd3-b439-c546c1e2653d" x1="344.63" y1="238.81" x2="397.19" y2="238.81" xlink:href="#uuid-5c88bee9-a4f5-4b4a-9fbc-0993b13d42fc"/>
    <linearGradient id="uuid-ecc27738-8e98-40d8-9599-c4974ae3aae1" x1="250.99" y1="232.61" x2="429.12" y2="232.61" xlink:href="#uuid-5c88bee9-a4f5-4b4a-9fbc-0993b13d42fc"/>
    <linearGradient id="uuid-447d1d58-296f-464a-93ba-9162c01a3bc3" x1="70.88" y1="321.96" x2="270.18" y2="321.96" xlink:href="#uuid-5c88bee9-a4f5-4b4a-9fbc-0993b13d42fc"/>
    <linearGradient id="uuid-e7ba17cd-f660-47d4-9e13-fbaa25aa455a" x1="268.57" y1="287.12" x2="270.18" y2="287.12" xlink:href="#uuid-5c88bee9-a4f5-4b4a-9fbc-0993b13d42fc"/>
    <linearGradient id="uuid-fc927abd-8972-40c2-ab23-91bdcd1d2696" x1="72.52" y1="318.93" x2="264.82" y2="318.93" xlink:href="#uuid-5c88bee9-a4f5-4b4a-9fbc-0993b13d42fc"/>
    <linearGradient id="uuid-b6687b53-bae2-4b7f-a65b-ae208dda38f1" x1="93.09" y1="303.27" x2="264.83" y2="303.27" xlink:href="#uuid-5c88bee9-a4f5-4b4a-9fbc-0993b13d42fc"/>
    <linearGradient id="uuid-1695a751-9202-4f25-952a-e652411829e5" x1="143.21" y1="350.64" x2="344.71" y2="149.15" gradientUnits="userSpaceOnUse">
      <stop offset="0" stop-color="#003599"/>
      <stop offset=".25" stop-color="#004bba"/>
      <stop offset=".57" stop-color="#0063df"/>
      <stop offset=".84" stop-color="#0072f6"/>
      <stop offset="1" stop-color="#0078ff"/>
    </linearGradient>
    <linearGradient id="uuid-5bceb0fa-c13a-4827-b902-0e91248be82b" x1="-212.71" y1="584.55" x2="2245.92" y2="-1874.09" xlink:href="#uuid-1695a751-9202-4f25-952a-e652411829e5"/>
  </defs>
  <g class="uuid-e86238f4-7015-4b37-8162-7b0c907f73d9">
    <g id="uuid-d5e6abbf-3d1a-4493-bb23-76da9db37786" data-name="BACKGROUND">
      <g>
        <g>
          <g>
            <path class="uuid-046c650e-d143-4142-8e55-ec079e8b74f5" d="m381.85,186.35c-4.65,2.03-7.31,3.41-10.14,2.36-4.51-1.66-9.64-3.59-15.12-5.69,1.78-1.93,2.64-3.75,1.79-4.91-1.21-1.66-2.54-3.49-2.54-3.49,0,0-1.33-1.83-2.54-3.49-1.72-2.37-8.1,1.11-13.04,5.59-26.48-10.29-54.83-21.55-60.73-23.25-5.66-1.64-12.75,2.36-12.69,4.01.02.56,2.34.96,3.62,1.62,5.23,2.66,13.51,8.29,22,14.41-.43.39-.8.78-1.05,1.13-.87,1.21-.66,1.49-.66,1.49,0,0,.21.28,1.62-.17.57-.18,1.31-.59,2.04-1.03,4.11,2.99,8.21,6.05,11.99,8.91-.37.35-.7.69-.92,1-.87,1.21-.66,1.49-.66,1.49,0,0,.21.28,1.62-.17.51-.16,1.16-.51,1.82-.9,3.57,2.72,6.79,5.2,9.35,7.19-.54.48-1.03.96-1.33,1.37-.87,1.21-.66,1.49-.66,1.49,0,0,.21.28,1.62-.17.64-.2,1.49-.68,2.29-1.19,2.6,2.03,4.18,3.28,4.18,3.28l7.3,10.13c-.55.49-1.06.98-1.36,1.4-.87,1.21-.66,1.49-.66,1.49,0,0,.21.28,1.62-.17.49-.16,1.11-.48,1.74-.86l3.57,4.95c1.46,2.63-.05,4.86-.6,6.06l46.52-33.86Z"/>
            <path class="uuid-6d2e81db-7434-42f7-aedd-159675ae46b7" d="m388.03,250.06c-.01-.22-.03-.45-.04-.67-.07-1.19-.14-2.39-.21-3.58-.03-.47-.06-.94-.08-1.41-.05-.91-.11-1.82-.16-2.73,5.79-3.32,11.05-8.32,9.33-10.69-1.21-1.66-2.54-3.49-2.54-3.49,0,0-1.33-1.83-2.54-3.49-.85-1.17-2.84-.91-5.23.19-.31-5.85-.57-11.33-.77-16.13-.12-3.02,2-5.12,5.37-8.93l-46.52,33.86c1.31-.15,3.9-.9,5.95,1.29l3.61,4.91c-.55.48-1.05.97-1.35,1.39-.87,1.21-.66,1.49-.66,1.49,0,0,.21.28,1.62-.17.49-.16,1.12-.49,1.75-.86l6.31,8.58h0l1.09,1.48s.02.05.06.16c0,0,0,0,0,.01.04.1.09.25.17.45,0,0,0,0,0,0,.06.17.15.39.23.63.04.11.09.25.14.38.07.18.14.37.21.58.05.13.11.28.16.43.08.23.17.47.26.72.07.19.15.4.22.61.1.27.2.54.31.83.02.06.05.13.07.19-.73.61-1.45,1.27-1.84,1.82-.87,1.21-.66,1.49-.66,1.49,0,0,.21.28,1.62-.17.49-.16,1.1-.48,1.72-.84.11.32.23.64.35.97.08.23.16.45.25.68.15.42.31.87.48,1.32.09.24.17.47.26.72.19.53.39,1.08.59,1.64.06.17.12.32.18.49.54,1.5,1.1,3.09,1.68,4.75.06.17.12.35.19.53-.57.5-1.11,1.02-1.42,1.45-.87,1.21-.66,1.49-.66,1.49,0,0,.21.28,1.62-.17.36-.11.79-.32,1.23-.57.08.24.17.49.26.74.19.53.37,1.07.56,1.61.11.33.23.66.34.99.19.55.38,1.1.57,1.65.12.36.25.72.37,1.08.18.54.37,1.08.55,1.63.72,2.13,1.44,4.3,2.15,6.46-.65.55-1.26,1.13-1.61,1.62-.87,1.21-.66,1.49-.66,1.49,0,0,.21.28,1.62-.17.4-.13.89-.37,1.39-.65,3.22,9.96,6.03,19.57,6.95,25.37.23,1.42-.11,3.75.43,3.94,1.56.57,7.54-4.96,7.72-10.85.13-4.2-.77-19.8-1.88-38.31h0c-.02-.37-.05-.75-.07-1.12-.06-.99-.12-1.98-.18-2.99-.28-4.61-.56-9.36-.85-14.12Z"/>
            <path class="uuid-cf75f2c7-25dc-4220-a2d2-f85f3a64d1b3" d="m366.22,260.03c.15.42.31.87.48,1.32.09.24.17.47.26.72.19.53.39,1.08.59,1.64.06.17.12.32.18.49.54,1.5,1.1,3.09,1.68,4.75.06.17.12.35.19.53-.57.5-1.11,1.02-1.42,1.45-.87,1.21-.66,1.49-.66,1.49,0,0,.21.28,1.62-.17.36-.11.79-.32,1.23-.57.08.24.17.49.26.74.19.53.37,1.07.56,1.61.11.33.23.66.34.99.19.55.38,1.1.57,1.65.12.36.25.72.37,1.08.08.24.17.49.25.74,1.64-20.65,4.02-41.16,11.37-60.9.51-1.36,1.17-2.64,1.96-3.8-.09-2-.18-3.94-.25-5.76-.12-3.02,2-5.12,5.37-8.93l-46.52,33.86c1.31-.15,3.9-.9,5.95,1.29l3.61,4.91c-.55.48-1.05.97-1.35,1.39-.87,1.21-.66,1.49-.66,1.49,0,0,.21.28,1.62-.17.49-.16,1.12-.49,1.75-.86l6.31,8.58,1.09,1.48s.02.05.06.16c0,0,0,0,0,.01.04.1.09.25.17.45,0,0,0,0,0,0,.06.17.15.39.23.63.04.11.09.25.14.38.07.18.14.37.21.58.05.13.11.28.16.43.08.23.17.47.26.72.07.19.15.4.22.61.1.27.2.54.31.83.02.06.05.13.07.19-.73.61-1.45,1.27-1.84,1.82-.87,1.21-.66,1.49-.66,1.49,0,0,.21.28,1.62-.17.49-.16,1.1-.48,1.72-.84.12.32.23.64.35.97.08.23.16.45.25.68Z"/>
          </g>
          <path class="uuid-42ad2470-d218-4f32-86be-129b318794a9" d="m428.59,162.1c-2.29-3.69-16.42.93-27.9,9.29-30.87,22.47-85.86,61.14-96.45,71.82-1.51,1.52-4.03,4.04-6.96,6.97-1.36.42-2.87.65-4.46.5-9.22-.85-36.82-4.99-37.52-4.81-.7.18-4.31,2.48-4.32,3.14,0,.67,25.98,14.13,27.73,15.17.97.57,1.58,1.84,1.94,2.87-.48.5-.93.97-1.35,1.42-2.8,2.97-2.35,3.69-2.13,3.85.08.26.63.91,4.31-.84.55-.26,1.14-.55,1.77-.85.87.66,1.89,1.63,2.14,2.73.45,1.98,5.28,30.85,5.91,31.05.64.2,3.94-2.54,4.32-3.14.38-.61,4.93-28.14,6.95-37.18.35-1.56,1.03-2.92,1.85-4.09,3.69-1.88,6.86-3.51,8.77-4.48,13.41-6.8,67.12-47.25,97.98-69.72,11.48-8.36,20.22-20.39,17.42-23.7Z"/>
        </g>
        <g>
          <path class="uuid-a310e695-0c2f-47ed-89bd-971fd83eee1b" d="m263.06,280.79c-12.79,9.35-27.55,18.53-43.21,27.43-65.65,37.33-127.51,52.39-138.18,33.63-3.2-5.62-1.42-13.64,4.38-23.12-12.78,15.21-18.14,28.08-13.57,36.12,11.33,19.92,79.34,2.63,151.91-38.64,15.2-8.64,32.94-19.84,45.78-28.87-2.54-1.14-4.93-2.25-7.12-6.56Z"/>
          <g>
            <path class="uuid-c979f990-854d-4a84-8659-64a0d5f8da87" d="m269.75,287.65c.14-.1.29-.2.43-.3-.54-.24-1.08-.49-1.6-.76.39.4.78.75,1.17,1.07Z"/>
            <path class="uuid-c8f7eb17-52f0-4225-a48d-96cce256d097" d="m72.59,339.99c-.26,3.16.24,5.99,1.59,8.39,11.27,20.16,76.68,3.97,146.1-36.16,16.09-9.3,31.28-18.89,44.54-28.66-.6-.75-1.18-1.64-1.75-2.77-12.79,9.35-27.55,18.53-43.21,27.43-65.65,37.33-127.51,52.39-138.18,33.63-3.2-5.62-1.42-13.64,4.38-23.12-6.57,7.82-11.16,15.01-13.47,21.25Z"/>
          </g>
          <path class="uuid-01d1b295-ef94-4b87-bda6-7b121f9e5f06" d="m260.81,274.32c-74.26,39.85-144.1,54.96-155.49,33.75-3.41-6.36-1.22-15.26,5.52-25.68-14.68,16.61-21.01,30.83-16.13,39.92,12.09,22.54,88.02,5.32,170.11-38.73-1.64-1.38-2.52-5.38-4.02-9.27Z"/>
        </g>
        <path class="uuid-b8396979-0365-45ca-809c-bfda1d8f028f" d="m269.92,205.65c-4.06-1.2-6.4-5.29-4.66-9.15,1.08-2.4,3.38-3.53,5.84-4.51.11-.65.24-1.29.4-1.94-.94-2.09-1.41-4.3-1.3-6.6-.61-.4-1.17-.88-1.63-1.48-2.93-3.78-7.71-5.61-11.48-9.34-4.82-4.77-6.6-11.72-3.67-17.89-.57-.47-1.02-1.05-1.24-1.76-.37-1.16,1.02-3.89,1.42-3.85,1.14.11,2.3.21,3.45.25,3.47-3.83,7.76-5.85,12.47-6.75.14-.12.27-.21.35-.24.38-.14.77-.25,1.18-.3.41-.05.81.01,1.19.14,7.83-.8,16.48.98,24.11,2.4,1.68-1.96,3.63-3.85,6.25-6.4.66-.64,1.39-1.27,2.15-1.82-11.49-6.27-24.04-10.82-37.31-13.35-3.61,7.54-9.08,13.94-15.5,19.57-7.54,6.62-16.36,12.2-24.89,17.44-2.53,1.55-5.85,3.09-8.25,1.35-2.75-1.99-1.69-6.24-.52-9.43,1.6-4.36,2.87-9.01,2.17-13.6-.7-4.59-3.83-9.08-8.36-10.08s-9.85,2.8-9.32,7.42c.51,4.47,5.56,7.19,6.65,11.55,1.14,4.59-2.76,9.21-7.28,10.59-4.52,1.38-9.38.4-14-.6-1.85-.4-4.22-1.61-3.68-3.43.74-2.45,5.65-1.38,6.11-3.9.46-2.52-3.78-2.32-5.91-.89-8.89,5.94-17.78,11.89-26.67,17.83-1.37.91-2.85,2-3.15,3.62-.76,4.22,4.88,1.84,6.36,3.31,2.53,2.52-1.98,7.26,3.34,6.82,3.36-.28,6.48-7.88,7.96-10.27,2.2-3.55,5.69-7.03,9.85-6.63,2.04.2,3.9,1.33,5.94,1.56s4.57-1.09,4.34-3.12c2.17.72,3.65,2.83,4.23,5.04.82,3.09.04,6.05.09,9.14.01.8,1.76,9,2.05,8.52-1.43,2.39-5.07,2.03-7.5.68-2.43-1.35-4.64-3.43-7.42-3.64-2.78-.21-5.71,3.2-3.81,5.23,1.43,1.52,4.61,1.18,5.12,3.21.28,1.13-.56,2.19-1.35,3.05-2.12,2.3-4.36,4.69-7.32,5.72-2.96,1.03-6.82.18-8.13-2.67-4.23,8.14-10.75,15.07-18.62,19.78-3.41,2.04-7.59,4.49-7.53,8.46.02,1.45.65,2.83.72,4.28.07,1.45-.79,3.16-2.24,3.18-2.72.03-1.99-4.47-3.56-6.69-1.16-1.65-3.52-1.78-5.53-1.71-4.32.14-8.72.44-12.73,2.04-.89.35-1.76.79-2.59,1.29-1.06,6.04-1.69,12.23-1.87,18.53,3.95,1.72,9.42-1.27,9.35-5.58,2.28,5.1,4.62,10.29,8.37,14.44,3.75,4.14,9.21,7.14,14.76,6.53,3.92-.43,7.44-2.56,11.29-3.44,7.52-1.73,15.2,1.44,22.26,4.54l40.64,17.84c.96.42,1.98.89,2.57,1.76.42.63.55,1.39.59,2.16,10.77-4.83,21.77-10.23,32.79-16.15h.02c-3.17-2.63-5.73-6.37-7.47-10.56-4.9-2.85-6.38-4.49-6.32-8.26.04-2.94,1.81-5.22,3.84-6.88.34-3.7,1.45-7.16,3.47-9.96,2.18-3.03,5.78-5.09,8.2-8.01,2.64-3.2,4.57-6.91,7.44-9.94,2.54-2.69,5.97-5.29,9.73-7.23-.45-.38-.88-.77-1.28-1.19-1.56.44-3.23.48-4.96-.03Zm90.66,96.19c-20.07,44.89-65.05,76.19-117.4,76.19-14.14,0-27.73-2.31-40.46-6.53-1.53-3.34-2.17-7.16-1.98-10.85.33-6.39,2.72-12.47,5.14-18.4,1.33-3.27,2.71-6.52,4.22-9.71,5.97-3.11,11.98-6.38,18.01-9.8,15.41-8.76,33.18-19.97,46.39-29.25l6.11-4.3c.49,2.77,1,5.59,1.47,8.1,1.89,10.14,2.4,12.86,7.03,14.29l1.15.34h1.13c5.51,0,10.54-6.59,10.59-6.67.57-.91.8-1.29,1.44-4.55.69,4.47.9,9.05,1.78,13.46,2.15,10.77,6.8,21.35,10.27,31.76.26.79.57,1.64,1.26,2.12,1.28.87,2.99-.03,4.26-.91,4.45-3.1,8.9-6.2,13.08-9.66,2.89-2.39,5.64-5.08,6.98-8.66,1.26-3.39.41-7.32,2.35-10.51,2.04-3.35,6.84-3.88,9.35-6.82,5.02-5.88.89-11.54.87-18.01,0-4.33,1.36-7.7,3.44-10.59.67,1.46,1.32,2.92,1.79,4.46,1.4,4.63,1.24,9.7,1.72,14.52Zm-230.76,8.32c-9.22-17.17-14.66-36.68-15.19-57.42,6.79,3.68,13.59,7.36,20.38,11.03,2.97,1.61,6.1,3.37,7.75,6.31,3.17,5.64-.38,12.67.26,19.11.75,7.53,6.8,12.79,12.54,18.11-9.24,1.88-17.6,2.87-24.79,2.87-.32,0-.64,0-.95-.01Zm49.52,38.46c2.84,6.39,6.48,12.83,11.11,18.1-8.49-3.82-16.49-8.55-23.88-14.04,4.04-1.62,8.14-3.34,12.29-5.16.16.37.32.74.48,1.1Zm64.46,44.04c-31.9,0-63.12-10.81-88.12-30.46-.49-.38-3.4-2.58-3.88-2.97l5.25-1.69c24.45,19.75,55.26,30.63,86.76,30.63,50.45,0,96.89-27.5,121.2-71.77l-.22,9.25c-26,41.54-71.63,67.02-120.98,67.02Zm-140.93-120.33c-1.15-7.34-1.74-14.86-1.74-22.34,0-78.67,64-142.67,142.67-142.67,41.54,0,80.93,18.06,108.08,49.54l-7.26-1.35c-26.1-27.84-62.52-43.7-100.82-43.7-76.19,0-138.17,61.98-138.17,138.17,0,6.11.4,12.25,1.2,18.29l-3.96,4.05Z"/>
        <path class="uuid-de5971b0-114d-4967-bddf-dcf73f14ce39" d="m138.86,266.07c-7.33,2.41-14.71,4.61-22.16,6.61-1.19-6.49-1.9-13.15-2.07-19.94,6.79,3.68,13.59,7.36,20.38,11.03,1.3.7,2.63,1.45,3.85,2.29Zm2.05-33.89c-2.72.03-1.99-4.47-3.56-6.69-1.16-1.65-3.52-1.78-5.53-1.71-4.32.14-8.72.44-12.73,2.04-.89.35-1.76.79-2.59,1.29-1.06,6.04-1.69,12.23-1.87,18.53,3.95,1.72,9.42-1.27,9.35-5.58,2.28,5.1,4.62,10.29,8.37,14.44,3.75,4.14,9.21,7.14,14.76,6.53,3.92-.43,7.44-2.56,11.29-3.44,1.73-.4,3.47-.53,5.21-.47.46-.18.92-.35,1.38-.54,22.52-9.97,44.4-21.68,64.35-36.14,13.1-10.74,25.06-22.7,35.83-35.78.87-1.19,1.7-2.4,2.55-3.6-2.95-3.15-7.21-4.99-10.64-8.39-4.82-4.77-6.6-11.72-3.67-17.89-.57-.47-1.02-1.05-1.24-1.76-.37-1.16,1.02-3.89,1.42-3.85,1.14.11,2.3.21,3.45.25,3.47-3.83,7.76-5.85,12.47-6.75.14-.12.27-.21.35-.24.38-.14.77-.25,1.18-.3.41-.05.81.01,1.19.14,5.77-.59,11.99.23,17.92,1.27,1.92-3.81,3.75-7.67,5.53-11.57-8.93-3.99-18.39-6.99-28.26-8.87-3.61,7.54-9.08,13.94-15.5,19.57-7.54,6.62-16.36,12.2-24.89,17.44-2.53,1.55-5.85,3.09-8.25,1.35-2.75-1.99-1.69-6.24-.52-9.43,1.6-4.36,2.87-9.01,2.17-13.6-.7-4.59-3.83-9.08-8.36-10.08-4.53-1-9.85,2.8-9.32,7.42.51,4.47,5.56,7.19,6.65,11.55,1.14,4.59-2.76,9.21-7.28,10.59-4.52,1.38-9.38.4-14-.6-1.85-.4-4.22-1.61-3.68-3.43.74-2.45,5.65-1.38,6.11-3.9.46-2.52-3.78-2.32-5.91-.89-8.89,5.94-17.78,11.89-26.67,17.83-1.37.91-2.85,2-3.15,3.62-.76,4.22,4.88,1.84,6.36,3.31,2.53,2.52-1.98,7.26,3.34,6.82,3.36-.28,6.48-7.88,7.96-10.27,2.2-3.55,5.69-7.03,9.85-6.63,2.04.2,3.9,1.33,5.94,1.56,2.04.24,4.57-1.09,4.34-3.12,2.17.72,3.65,2.83,4.23,5.04.82,3.09.04,6.05.09,9.14.01.8,1.76,9,2.05,8.52-1.43,2.39-5.07,2.03-7.5.68-2.43-1.35-4.64-3.43-7.42-3.64-2.78-.21-5.71,3.2-3.81,5.23,1.43,1.52,4.61,1.18,5.12,3.21.28,1.13-.56,2.19-1.35,3.05-2.12,2.3-4.36,4.69-7.32,5.72-2.96,1.03-6.82.18-8.13-2.67-4.23,8.14-10.75,15.07-18.62,19.78-3.41,2.04-7.59,4.49-7.53,8.46.02,1.45.65,2.83.72,4.28.07,1.45-.79,3.16-2.24,3.18Zm-38.04,40.16c-1.15-7.34-1.74-14.86-1.74-22.34,0-78.67,64-142.67,142.67-142.67,19.92,0,39.34,4.16,57.15,11.95-.6,1.34-1.18,2.73-1.74,4.14-17.27-7.56-36.1-11.6-55.41-11.6-76.19,0-138.17,61.98-138.17,138.17,0,6.11.4,12.25,1.2,18.29l-3.96,4.05Z"/>
      </g>
    </g>
  </g>
</svg>